HIERARCHY
ROOT wineglass3
{
	OFFSET 0.000000 0.000000 0.000000
	CHANNELS 6 Xposition Yposition Zposition Yrotation Xrotation Zrotation
	End Site
	{
		OFFSET 0.000000 0.000000 0.000000
	}
}
MOTION
Frames: 192
Frame Time: 0.00862069
1.860034 3.777781 3.308489 -82.326450 0.109512 3.912821 
1.860034 3.777781 3.308489 -82.326450 0.109512 3.912821 
1.861122 3.778117 3.308434 -82.302730 0.044020 3.915824 
1.861531 3.778309 3.308833 -82.326630 0.048801 3.965511 
1.861943 3.778411 3.309262 -82.300960 -0.014038 3.978922 
1.861861 3.778380 3.309321 -82.272400 -0.010590 3.986858 
1.861779 3.778350 3.309380 -82.243840 -0.007172 3.994794 
1.861726 3.778314 3.309005 -82.281490 0.028698 4.019815 
1.861350 3.778108 3.308406 -82.301300 0.035933 3.887027 
1.861108 3.777959 3.308270 -82.290440 0.042922 3.907034 
1.860548 3.777761 3.308294 -82.343140 0.079106 3.912271 
1.859891 3.778024 3.307929 -82.338780 0.093139 3.910549 
1.859592 3.778002 3.307939 -82.350590 0.116181 3.930170 
1.859161 3.778200 3.307850 -82.355930 0.085772 3.999163 
1.858938 3.778315 3.307725 -82.356380 0.104534 4.004723 
1.858637 3.778384 3.307644 -82.352050 0.111146 4.013485 
1.858583 3.778386 3.307683 -82.364810 0.140502 3.992410 
1.858677 3.778462 3.307794 -82.375490 0.136295 3.979356 
1.858647 3.778488 3.307803 -82.369570 0.139844 3.984405 
1.858617 3.778513 3.307812 -82.363620 0.143392 3.989452 
1.858533 3.778580 3.308216 -82.368040 0.138378 3.978916 
1.858498 3.778918 3.308445 -82.284330 0.129711 3.960834 
1.858013 3.778916 3.308819 -82.360840 0.140154 3.910784 
1.857508 3.779197 3.309622 -82.356200 0.082563 3.928616 
1.857360 3.779267 3.310134 -82.359650 0.059123 3.932575 
1.857568 3.779238 3.310684 -82.337710 0.061407 3.965266 
1.857208 3.779001 3.311704 -82.327210 0.077558 3.966249 
1.856885 3.779202 3.312105 -82.342410 0.065202 3.869251 
1.856831 3.779098 3.312565 -82.317720 0.093351 3.928092 
1.856840 3.779251 3.312322 -82.318270 0.118604 3.863102 
1.856770 3.779193 3.312426 -82.316830 0.151998 3.961051 
1.856356 3.779402 3.312435 -82.329410 0.102370 3.874513 
1.856067 3.779383 3.312391 -82.355220 0.060703 3.900855 
1.856030 3.779566 3.312213 -82.334050 0.118563 3.910233 
1.855195 3.779572 3.312620 -82.363160 0.139594 3.916731 
1.854603 3.779469 3.312557 -82.381410 0.164559 3.834986 
1.854646 3.779217 3.312916 -82.374690 0.167343 3.941837 
1.854380 3.779306 3.313076 -82.377690 0.177451 3.928501 
1.854167 3.779322 3.313271 -82.359860 0.193727 3.936180 
1.853981 3.779439 3.313443 -82.372310 0.166829 3.947834 
1.853682 3.779626 3.313451 -82.375790 0.145754 3.972616 
1.853377 3.779574 3.313564 -82.365390 0.182052 3.943878 
1.853167 3.779754 3.313466 -82.370940 0.154640 3.898932 
1.852922 3.779824 3.313365 -82.359410 0.129826 3.924472 
1.852614 3.779702 3.313097 -82.372190 0.144815 3.867039 
1.852354 3.779832 3.312904 -82.357480 0.119816 3.935240 
1.852286 3.779910 3.312498 -82.369290 0.119269 3.947821 
1.852285 3.779774 3.311993 -82.382930 0.169908 3.970225 
1.852277 3.779621 3.311514 -82.344240 0.182957 3.956437 
1.852160 3.779608 3.311181 -82.334960 0.134649 3.999258 
1.852055 3.779663 3.310755 -82.334200 0.149922 4.004153 
1.851666 3.779727 3.310946 -82.370330 0.165429 4.076223 
1.851839 3.779458 3.310882 -82.343350 0.187262 3.991689 
1.851884 3.779542 3.311066 -82.352140 0.158291 4.076615 
1.851496 3.779706 3.311339 -82.386350 0.192533 4.004491 
1.851289 3.779437 3.311572 -82.336880 0.199653 3.891935 
1.850109 3.779807 3.312104 -82.363560 0.196072 3.897961 
1.849421 3.779975 3.312417 -82.355290 0.226614 3.985625 
1.848826 3.779858 3.312629 -82.336670 0.226262 3.925267 
1.849108 3.779688 3.312945 -82.273250 0.312014 3.830341 
1.849120 3.779972 3.313371 -82.332030 0.353105 3.936524 
1.849348 3.779907 3.313128 -82.296020 0.250953 3.907344 
1.849934 3.780005 3.313067 -82.352510 0.178971 3.905995 
1.850294 3.779546 3.312889 -82.380860 0.128862 3.878207 
1.850361 3.779842 3.312274 -82.361240 0.209339 3.860923 
1.850028 3.779696 3.311914 -82.348270 0.223485 3.818231 
1.849882 3.779666 3.311259 -82.323850 0.245261 3.803309 
1.849405 3.779958 3.310702 -82.302150 0.209669 4.026034 
1.848485 3.779937 3.310294 -82.313690 0.233856 3.950440 
1.848086 3.779875 3.310001 -82.323120 0.275997 3.962366 
1.848057 3.779839 3.308999 -82.345790 0.193011 4.025658 
1.848339 3.779389 3.308361 -82.344880 0.203208 4.018156 
1.847958 3.778635 3.307807 -82.329710 0.317961 3.924733 
1.847079 3.778405 3.307113 -82.329900 0.342824 3.885749 
1.846108 3.778378 3.306376 -82.340880 0.319894 3.942870 
1.845174 3.778373 3.305179 -82.347840 0.222614 4.047254 
1.844042 3.778311 3.304410 -82.328370 0.265157 4.063273 
1.842733 3.778228 3.303210 -82.287720 0.298613 4.049128 
1.841971 3.778146 3.302001 -82.301420 0.302554 4.014482 
1.841442 3.778066 3.300911 -82.317810 0.337029 3.975397 
1.840844 3.777905 3.299804 -82.317020 0.267174 4.135740 
1.840845 3.777666 3.299169 -82.333830 0.283644 4.114917 
1.841024 3.777218 3.298698 -82.328800 0.312249 4.053161 
1.841199 3.777084 3.298235 -82.334500 0.316741 4.127354 
1.841203 3.777171 3.298364 -82.295780 0.318313 4.087130 
1.840882 3.777164 3.299022 -82.300420 0.350869 4.068895 
1.840881 3.777148 3.299922 -82.307590 0.348736 4.007003 
1.840943 3.777417 3.301053 -82.313200 0.368524 3.941542 
1.840529 3.777474 3.302286 -82.356540 0.370335 3.959810 
1.840544 3.777412 3.303557 -82.362060 0.368655 4.010276 
1.840661 3.777187 3.304506 -82.321720 0.358970 3.941286 
1.840665 3.777253 3.304975 -82.326110 0.352799 3.953200 
1.840892 3.777287 3.305365 -82.333740 0.353629 3.942256 
1.841040 3.777319 3.305402 -82.343900 0.361520 3.935781 
1.841451 3.777342 3.305061 -82.340420 0.345520 3.935149 
1.841873 3.777345 3.304451 -82.321110 0.362626 3.994726 
1.841805 3.777333 3.304237 -82.314820 0.344424 4.040907 
1.841687 3.777210 3.304028 -82.321530 0.344169 4.011892 
1.841726 3.777291 3.303720 -82.327700 0.325341 4.000207 
1.841664 3.777150 3.303705 -82.324340 0.345694 3.993565 
1.842312 3.776842 3.302826 -82.364690 0.361381 3.916297 
1.842198 3.776967 3.302633 -82.339780 0.349028 3.989889 
1.842084 3.777091 3.302439 -82.314910 0.336642 4.063474 
1.842025 3.776944 3.302021 -82.356570 0.336242 4.001935 
1.841948 3.777031 3.301768 -82.317570 0.353812 4.001966 
1.842019 3.776945 3.301467 -82.317660 0.357000 3.997189 
1.841951 3.777064 3.301347 -82.329960 0.333960 3.956453 
1.842111 3.777191 3.301187 -82.337430 0.319825 3.975368 
1.842276 3.777021 3.301115 -82.308470 0.340515 3.986260 
1.842408 3.776875 3.300845 -82.287900 0.305632 4.007956 
1.842387 3.776804 3.300841 -82.301820 0.294667 3.993149 
1.842376 3.776835 3.300676 -82.281740 0.289344 3.998094 
1.842343 3.776824 3.300593 -82.283200 0.288748 4.003812 
1.842444 3.776894 3.300326 -82.294650 0.266791 4.066672 
1.842498 3.776926 3.300421 -82.278320 0.283214 4.103808 
1.842512 3.776850 3.300254 -82.287990 0.292513 4.082780 
1.842645 3.776627 3.300205 -82.300750 0.265457 4.028000 
1.842665 3.776721 3.300229 -82.295780 0.283724 4.038068 
1.842617 3.776726 3.300170 -82.298370 0.282666 4.042542 
1.842662 3.776739 3.300048 -82.290680 0.284936 4.111322 
1.842603 3.776643 3.299855 -82.310610 0.276350 4.064940 
1.842522 3.776578 3.299731 -82.285370 0.282357 4.016966 
1.842377 3.776677 3.299607 -82.330080 0.259977 4.059360 
1.842259 3.776689 3.299636 -82.330900 0.280005 4.062208 
1.842391 3.776544 3.299314 -82.301790 0.268460 4.018204 
1.842321 3.776583 3.299344 -82.324800 0.296350 4.019489 
1.842277 3.776587 3.299325 -82.312410 0.279382 4.014803 
1.842104 3.776869 3.299469 -82.309420 0.265102 4.058850 
1.841960 3.776664 3.299384 -82.339080 0.293118 4.016116 
1.841925 3.776610 3.299486 -82.362610 0.304363 4.042872 
1.841885 3.776574 3.299500 -82.353120 0.299600 4.038443 
1.841798 3.776536 3.299834 -82.341580 0.307021 4.034889 
1.841699 3.776437 3.300097 -82.359830 0.287387 4.026881 
1.841599 3.776606 3.300220 -82.343690 0.302812 4.009615 
1.841461 3.776476 3.300421 -82.364230 0.330491 3.979533 
1.841116 3.776478 3.300531 -82.345830 0.344986 3.957401 
1.840598 3.776534 3.300973 -82.334260 0.387909 3.956352 
1.839668 3.776651 3.301772 -82.384490 0.409068 3.990630 
1.839031 3.776604 3.302008 -82.374330 0.419794 3.993393 
1.838531 3.776489 3.302075 -82.377500 0.383426 4.002301 
1.837887 3.776283 3.302154 -82.386200 0.409042 4.014147 
1.837821 3.776289 3.302008 -82.315640 0.397784 4.094928 
1.837978 3.776407 3.301540 -82.342410 0.409992 3.922673 
1.838892 3.776514 3.301250 -82.342010 0.396053 3.976421 
1.840248 3.776374 3.300583 -82.338780 0.406740 3.980595 
1.840968 3.776456 3.300068 -82.346650 0.342243 4.005288 
1.841013 3.776335 3.300381 -82.328670 0.372107 3.957673 
1.841310 3.776355 3.300505 -82.332580 0.349157 3.937234 
1.841582 3.776459 3.300345 -82.348880 0.296539 4.002787 
1.841813 3.776622 3.300525 -82.341460 0.233818 4.024514 
1.841351 3.776358 3.301081 -82.308690 0.360859 3.953056 
1.841121 3.776811 3.301658 -82.375820 0.433518 3.923563 
1.841338 3.776743 3.301823 -82.357120 0.441319 3.948223 
1.841916 3.776801 3.302243 -82.363280 0.305571 3.993927 
1.841965 3.776755 3.302570 -82.374600 0.324574 3.976115 
1.841880 3.776913 3.303332 -82.357790 0.313777 3.977671 
1.842351 3.776903 3.303612 -82.352810 0.284920 3.958210 
1.843182 3.777053 3.303410 -82.327580 0.243820 3.916662 
1.842958 3.777093 3.303960 -82.314090 0.244152 4.003015 
1.844638 3.776836 3.303975 -82.339110 0.183861 4.039093 
1.844743 3.776703 3.304043 -82.331300 0.202761 4.001125 
1.845018 3.776734 3.303977 -82.321470 0.194426 4.026620 
1.845196 3.776666 3.304119 -82.335330 0.195309 4.017466 
1.845420 3.776653 3.304324 -82.317630 0.207295 4.027693 
1.845267 3.776762 3.304806 -82.314330 0.195118 3.999359 
1.845682 3.776708 3.305005 -82.309300 0.227462 4.010595 
1.845502 3.776830 3.305556 -82.294560 0.225153 4.041164 
1.845537 3.776890 3.305839 -82.299740 0.243555 3.990265 
1.845380 3.776824 3.306246 -82.307800 0.291152 3.890737 
1.845536 3.776954 3.306661 -82.304870 0.278488 3.920974 
1.845632 3.776732 3.307339 -82.306180 0.340266 3.866973 
1.845502 3.776883 3.307939 -82.322540 0.321392 3.938109 
1.845440 3.776759 3.308078 -82.334440 0.316870 3.937870 
1.845760 3.776866 3.308258 -82.314330 0.333538 3.981578 
1.845639 3.776997 3.308598 -82.305570 0.322019 3.959836 
1.845768 3.776972 3.308783 -82.315030 0.308586 3.988497 
1.846125 3.776968 3.308807 -82.318210 0.335297 4.017384 
1.846355 3.777025 3.309113 -82.361630 0.332053 4.028275 
1.846666 3.777253 3.309413 -82.337250 0.308399 4.002434 
1.847152 3.777462 3.309391 -82.350430 0.345202 3.977186 
1.847341 3.777714 3.309519 -82.344120 0.282804 4.026586 
1.848049 3.777982 3.309562 -82.384890 0.301202 4.023378 
1.850113 3.777247 3.308013 -82.340580 0.150629 3.764667 
1.851691 3.779090 3.315743 -82.313540 0.175553 3.971327 
1.851910 3.779101 3.316268 -82.328160 0.179721 3.996762 
1.851997 3.778982 3.316805 -82.318730 0.166004 3.974818 
1.852074 3.779113 3.317478 -82.312560 0.225438 3.965387 
1.852028 3.779311 3.318157 -82.279450 0.179594 3.961508 
1.852023 3.779398 3.318497 -82.275760 0.163994 3.997264 
1.851738 3.779635 3.319016 -82.296910 0.165114 3.947263 
1.851346 3.779535 3.319293 -82.271300 0.137615 4.038437 
1.851585 3.779875 3.319191 -82.276820 0.160941 3.963877 
